<svg id="Capa_1" enable-background="new 0 0 512 512" height="512" viewBox="0 0 512 512" width="512" xmlns="http://www.w3.org/2000/svg"><g><path d="m0 0v241h241v-241zm185.67 135.18h-50.48v50.48h-30v-50.48h-50.49v-30h50.49v-50.48h30v50.48h50.48z"/><path d="m0 271v241h241v-241zm177.09 156.52-21.22 21.21-35.69-35.69-35.7 35.69-21.21-21.21 35.69-35.7-35.69-35.69 21.21-21.22 35.7 35.7 35.69-35.7 21.22 21.22-35.7 35.69z"/><path d="m271 0v241h241v-241zm186.3 135.18h-130.96v-30h130.96z"/><path d="m271 271v241h241v-241zm104.94 44.91h30.85v30h-30.85zm30.85 150.62h-30.85v-30h30.85zm50.06-59.59h-130.97v-30h130.97z"/></g></svg>